<?xml version="1.0" standalone="no"?>
<!DOCTYPE svg PUBLIC "-//W3C//DTD SVG 20010904//EN"
 "http://www.w3.org/TR/2001/REC-SVG-20010904/DTD/svg10.dtd">
<svg version="1.0" xmlns="http://www.w3.org/2000/svg"
 width="565.000000pt" height="565.000000pt" viewBox="0 0 565.000000 565.000000"
 preserveAspectRatio="xMidYMid meet">

<g transform="translate(0.000000,565.000000) scale(0.100000,-0.100000)"
fill="#000000" stroke="none">
<path d="M765 5640 c-88 -12 -180 -37 -252 -70 -133 -61 -279 -183 -363 -305
-45 -65 -104 -197 -126 -280 -18 -67 -19 -154 -19 -2160 l0 -2090 23 -80 c31
-108 90 -225 155 -310 115 -150 305 -273 488 -314 l94 -22 2085 3 c2358 4
2115 -5 2305 88 222 110 383 303 457 550 21 73 22 90 26 607 l3 531 -59 -18
c-99 -31 -215 -43 -351 -37 -290 13 -506 121 -673 337 l-27 35 -1 -658 0 -657
-217 2 -218 3 -6 1680 c-3 924 -8 1689 -10 1700 -4 19 2 20 192 23 l197 2 6
-77 c3 -43 8 -138 12 -211 l6 -132 40 57 c116 167 292 301 478 361 187 61 450
68 612 16 19 -6 19 2 16 353 -4 357 -4 358 -32 448 -93 304 -321 524 -631 608
l-80 22 -2035 1 c-1119 1 -2062 -2 -2095 -6z m2683 -519 c51 -26 115 -99 130
-149 18 -61 15 -170 -7 -217 -55 -119 -201 -180 -335 -141 -106 31 -174 118
-184 233 -11 140 54 240 187 290 49 18 158 10 209 -16z m-1763 -900 c134 -35
255 -101 349 -191 45 -43 97 -103 116 -134 19 -30 38 -55 41 -56 3 0 10 80 15
178 l9 177 194 3 194 2 -7 -87 c-4 -49 -11 -587 -16 -1198 -8 -1189 -7 -1168
-61 -1385 -106 -428 -390 -680 -861 -766 -120 -21 -353 -29 -483 -15 -212 23
-436 86 -566 159 -27 15 -49 31 -49 37 0 10 100 317 106 324 2 2 45 -17 96
-42 205 -101 411 -143 653 -134 169 6 252 24 363 82 87 44 150 96 207 169 122
158 169 354 163 683 l-3 162 -55 -71 c-168 -217 -463 -342 -764 -324 -172 11
-312 53 -460 140 -84 49 -246 205 -306 295 -96 143 -167 333 -196 526 -21 135
-14 412 15 543 109 509 433 852 884 938 103 19 319 12 422 -15z m1855 -1231
l0 -1210 -217 2 -218 3 -3 1195 c-1 657 0 1201 3 1208 3 9 57 12 220 12 l215
0 0 -1210z"/>
<path d="M1331 3880 c-105 -28 -194 -81 -282 -169 -168 -169 -251 -403 -252
-711 0 -469 207 -783 564 -856 328 -66 630 107 747 428 l27 73 3 353 c2 238
-1 371 -8 408 -7 31 -32 96 -57 146 -64 128 -165 229 -283 286 -47 22 -109 45
-138 51 -83 17 -236 13 -321 -9z"/>
<path d="M5095 3885 c-210 -46 -380 -182 -475 -380 -78 -162 -83 -191 -88
-500 -4 -296 4 -388 44 -494 77 -204 263 -368 471 -417 95 -22 248 -20 345 5
82 21 138 46 206 93 l42 29 0 767 0 767 -48 32 c-143 97 -332 134 -497 98z"/>
</g>
</svg>
